<svg xmlns="http://www.w3.org/2000/svg"  viewBox="0 0 50 50" width="50px" height="50px"><path d="M38.943,37.146c-1.066,0.533-2.185,0.952-3.323,1.247c-0.004,0.001-0.009,0.002-0.013,0.003	c-1.899,0.519-3.931,0.716-5.984,0.548c-6.643-0.488-12.251-4.608-14.03-10.171l18.556-2.783C34.638,25.915,35,25.495,35,25	s-0.362-0.915-0.852-0.989l-18.556-2.783c1.779-5.562,7.388-9.683,14.04-10.172c2.009-0.163,4.071,0.03,5.987,0.552	c1.138,0.295,2.256,0.714,3.323,1.247c0.443,0.22,0.98,0.085,1.265-0.318c0.285-0.404,0.231-0.956-0.125-1.298	c-0.822-0.788-1.714-1.499-2.661-2.122l0.419-1.297c0.297-0.911-0.099-1.906-0.933-2.362c-0.595-0.332-1.79-0.953-3.104-1.376	c-1.207-0.399-2.475-0.613-3.328-0.724c-0.943-0.12-1.848,0.458-2.147,1.375l-0.417,1.288c-0.53-0.025-1.129-0.031-1.82,0.006	l-0.421-1.297c-0.297-0.915-1.2-1.485-2.151-1.367c-0.84,0.107-2.098,0.318-3.318,0.714c-1.217,0.396-2.359,0.965-3.103,1.372	c-0.841,0.46-1.235,1.456-0.938,2.37l0.426,1.312c-0.506,0.332-0.995,0.687-1.462,1.062l-1.115-0.811	c-0.776-0.563-1.847-0.498-2.544,0.16c-0.618,0.582-1.512,1.493-2.264,2.527c-0.749,1.03-1.34,2.164-1.705,2.935	c-0.409,0.865-0.142,1.903,0.635,2.47l1.101,0.799C9.024,18.826,8.84,19.404,8.679,20H7.311c-0.961,0-1.788,0.684-1.965,1.625	C5.188,22.461,5,23.727,5,25s0.188,2.539,0.345,3.376C5.523,29.316,6.349,30,7.311,30h1.369c0.161,0.596,0.345,1.174,0.553,1.729	l-1.101,0.8c-0.776,0.565-1.043,1.604-0.634,2.47c0.365,0.77,0.956,1.903,1.705,2.934c0.752,1.034,1.646,1.945,2.263,2.527	c0.697,0.658,1.766,0.725,2.545,0.159l1.115-0.81c0.467,0.375,0.956,0.729,1.462,1.062l-0.426,1.312	c-0.297,0.914,0.098,1.91,0.938,2.369c0.744,0.408,1.887,0.977,3.104,1.373c1.219,0.396,2.477,0.606,3.316,0.714	c0.948,0.119,1.855-0.453,2.153-1.367l0.421-1.297c0.69,0.037,1.29,0.031,1.82,0.006l0.417,1.29	c0.272,0.835,1.046,1.389,1.899,1.389c0.083,0,0.166-0.006,0.249-0.016c0.851-0.11,2.119-0.324,3.318-0.721	c1.322-0.426,2.517-1.047,3.103-1.374c0.842-0.461,1.238-1.456,0.942-2.365l-0.42-1.299c0.946-0.623,1.839-1.334,2.661-2.122	c0.357-0.342,0.41-0.894,0.125-1.298C39.923,37.061,39.386,36.925,38.943,37.146z"/></svg>