<?xml version="1.0" encoding="UTF-8" standalone="no"?><!DOCTYPE svg PUBLIC "-//W3C//DTD SVG 1.1//EN" "http://www.w3.org/Graphics/SVG/1.1/DTD/svg11.dtd"><svg width="100%" height="100%" viewBox="0 0 3953 870" version="1.1" xmlns="http://www.w3.org/2000/svg" xmlns:xlink="http://www.w3.org/1999/xlink" xml:space="preserve" xmlns:serif="http://www.serif.com/" style="fill-rule:evenodd;clip-rule:evenodd;stroke-linejoin:round;stroke-miterlimit:2;"><path d="M0,125.475l336.675,-125.475l283.875,42.9l0,767.925l0.075,21.675l-281.55,37.5l-339.075,-112.875l0,-631.65Z" style="fill:#365798;fill-rule:nonzero;"/><path d="M18.975,739.95l-0.9,-596.25l291.675,-107.775l-0.75,795.6l-290.025,-91.575Zm339.6,92.325l0.15,-792.225l232.35,31.5l0,731.85l-232.5,28.875Z" style="fill:#a5b6d9;fill-rule:nonzero;"/><path d="M161.625,553.575l-130.5,-7.5l-0.9,-229.875l131.7,-12.3l-0.3,249.675Zm12.525,-250.875l117.075,-14.55l-0.9,269.85l-116.4,-3.6l0.225,-251.7Zm-144.675,-1.95l0,-145.8l132,-43.05l0.9,174.075l-132.9,14.775Zm263.1,-237.9l0.675,205.875l-119.025,15.3l0,-178.5l118.35,-42.675Zm-189.75,682.275l0,-176.325l106.275,6.975l0,201.3l-106.275,-31.95Zm185.25,60.6l-12.975,-4.8c2.85,-16.875 -14.175,-23.925 -14.325,-4.275l-14.025,-4.125c-0.675,-16.575 -10.425,-23.775 -15.9,-5.1l-7.275,-2.25l-0.45,-208.275l9.225,0.675c-3.225,20.625 17.625,21.15 15.225,1.275l15.225,0.975c-3.3,21.45 17.4,21.675 15.3,0.975l9.525,0.6l0.45,224.325Zm-255.975,-241.575l61.65,4.425l-0.375,81l-61.425,-8.4l0.15,-77.025Zm62.325,96.975l-0.675,82.8l-62.025,-15.15l0,-76.8l62.7,9.15Zm276.3,-607.8l208.95,27.45l0,712.5l-208.725,26.325l-0.225,-766.275Z" style="fill:#365798;fill-rule:nonzero;"/><path d="M209.25,381.45c-0.075,-3.825 0,-7.5 2.4,-10.65c4.5,0.15 3.675,7.275 3.75,10.725c7.725,3.825 3.675,-8.1 7.65,-11.475c5.7,-0.6 -0.45,12 5.175,11.85c3.675,-0.075 2.925,-1.8 2.85,-5.025c-0.075,-2.925 0.3,-5.85 2.85,-7.725c6.15,2.325 0.6,13.65 8.4,11.85c0,-4.8 -0.75,-10.65 4.35,-13.2c1.95,3.9 -0.075,11.1 4.05,12.075c5.55,1.275 6.3,2.7 7.65,7.875c0.6,2.325 -0.3,3.45 2.1,4.8c2.625,1.5 5.7,1.05 5.775,4.575c0.075,4.8 -2.025,4.125 -5.7,4.125c-1.35,0 -1.8,2.55 -1.875,3.525c-0.3,3.525 0.3,4.275 3.75,5.25c4.425,1.275 3.675,2.475 3.675,6.525c0,2.025 0.375,0.9 -2.325,1.425c-4.275,0.825 -5.25,0.225 -5.025,5.1c0.3,5.85 10.05,1.05 7.275,9.45c-1.2,3.6 -7.125,0.825 -7.125,3.975c0,3.975 -0.825,5.775 4.05,6.15c4.8,0.375 4.5,6.825 0.3,8.25c-2.55,0.9 -3.45,-0.075 -4.35,3c-0.9,3.075 -0.825,6.3 -1.95,9.375c-4.575,3.375 -8.7,-1.275 -8.7,6.3c0,2.025 -0.45,3.525 -0.825,5.475c-0.675,3.75 -1.65,0.525 -4.35,1.35c-0.75,-0.9 0,-5.925 0,-7.125c0,-3.525 -1.2,-4.35 -5.25,-4.05c-0.225,4.35 -0.15,9 -3.675,12.15c-2.175,-1.425 -3,-3.6 -3.15,-6.075c-0.225,-4.875 0.15,-5.025 -4.875,-6.225c-0.9,2.175 -1.5,8.55 -1.125,10.875c-3.9,1.95 -4.5,-4.05 -4.5,-6.45c0,-2.025 0.825,-4.275 -1.725,-5.025c-2.55,-0.675 -3.45,0.6 -3.525,2.925c-0.15,4.575 -0.375,6.6 -3.975,9.15c-1.425,-4.05 -0.225,-11.025 -4.95,-12.3c-5.25,-1.35 -5.925,-5.175 -6,-10.2c-0.075,-5.475 -6.675,-0.225 -6.675,-6.15c0,-0.6 -0.45,-3.675 0,-4.125c2.175,-1.575 4.35,0.9 6.375,0.075c0.975,-2.7 1.35,-6.75 -1.575,-7.425c-3,-0.675 -5.85,-1.05 -5.175,-4.5c0.825,-4.275 0.075,-4.05 4.725,-4.35c3.525,-0.225 2.25,-3.9 2.325,-6.3c-4.65,-2.175 -6.6,0.6 -6.6,-5.55c0,-4.2 -0.3,-3.825 3.9,-3.825c3.6,0 2.55,-1.275 2.55,-4.725c0,-3.825 -6.9,-0.45 -7.2,-5.7c-0.15,-2.25 0.75,-4.2 2.925,-5.025c3.825,-1.5 4.275,-1.725 4.425,-5.85c0.225,-6 4.2,-6.675 9,-9.075l-0.075,-0.075Zm-143.025,-104.4l18.225,-69.15l-11.775,5.625l16.2,-59.25l19.125,-5.475l-14.325,39.825l14.4,-7.725l-41.775,96.225l-0.075,-0.075Z" style="fill:#a5b6d9;fill-rule:nonzero;"/><path d="M209.1,239.25c0.9,-2.4 1.875,-4.875 2.85,-7.425c10.35,4.425 19.8,7.65 30.45,1.425c10.275,-6 17.1,-18.225 21,-29.1c7.65,-21.3 7.65,-50.1 -6.225,-68.85c-16.875,-22.875 -40.875,-10.875 -52.35,10.425c-3.525,6.6 -8.4,23.475 -9.075,33.975c-0.375,5.175 -0.15,10.575 0.6,15.975c0.75,6.075 3.9,12.375 3.15,18.525c-0.225,1.875 -1.35,3.075 -3.45,3.45c-12.525,-21 -5.7,-54.675 3.675,-75.45c9.375,-20.7 35.925,-41.625 56.925,-21.75c19.275,18.15 21.15,51.075 15.975,75.225c-4.65,21.6 -19.5,53.55 -46.425,51.15c-4.8,-0.45 -14.325,-2.85 -17.025,-7.5l-0.075,-0.075Zm15.375,-34.425c-2.4,-8.7 8.625,-14.625 11.1,-21.3c1.425,-3.9 -0.075,-7.2 -1.65,-10.5c-3.675,-1.95 -6.75,-0.825 -8.1,3c-2.4,6.675 -4.875,11.175 -9.45,16.575c-2.475,-10.275 -1.05,-21.825 4.95,-30.675c3.225,-4.725 9.675,-7.05 14.55,-5.175c15.375,5.85 10.65,32.025 3.975,42.3c-3.525,5.475 -9.525,5.7 -15.375,5.7l0,0.075Zm2.55,-19.35c0.375,0.525 0.375,1.05 0.15,1.5c-7.05,15.975 -14.025,31.95 -21.15,48c-0.675,-0.3 -1.05,-0.3 -1.275,-0.525c-2.475,-2.925 -4.2,-6.375 -5.85,-9.825c-0.675,-1.35 0.075,-2.7 0.9,-3.825l24.6,-32.775c0.675,-0.975 1.5,-1.95 2.55,-2.55l0.075,0Z" style="fill:#a5b6d8;fill-rule:nonzero;"/><path d="M141.525,692.1c-4.575,8.925 -3.3,18.825 -4.5,28.5c-7.275,-1.8 -12.525,-16.275 -13.95,-22.5c1.275,-7.425 5.175,-12.9 9.675,-18.675c2.1,-2.7 2.775,-5.4 1.425,-8.55c-0.525,-1.2 -0.45,-2.7 -1.5,-3.675c-6.525,1.125 -10.425,6.15 -14.925,10.5c-5.025,-5.25 -3.9,-25.05 0.15,-30.825c6.3,-1.125 11.85,0.75 16.95,4.35c3.975,-3.9 4.2,-7.725 0.675,-11.775c-2.7,-3.075 -11.025,-6.675 -12.525,-9.825c-1.2,-4.725 7.65,-20.625 12.975,-20.4c5.85,8.625 9.3,18.375 11.25,28.575c2.025,0.825 3.825,1.575 6.15,1.125c1.2,-11.625 -1.425,-22.725 -5.1,-33.6c0.375,-0.375 0.6,-0.675 0.75,-0.675c6.45,0.45 12.6,1.725 17.55,6.45c11.175,10.65 -8.625,31.275 0.3,43.8c8.025,-7.725 7.875,-17.325 13.95,-25.5c6,7.725 11.25,23.25 10.275,33.075c-5.175,6.225 -9.3,9.75 -21.675,10.65c0.375,2.775 -1.35,5.4 -0.6,8.625c6.6,7.05 13.875,5.925 22.575,5.4c1.2,6.15 -5.025,25.2 -9.675,29.775c-9.45,-4.275 -14.325,-13.425 -19.575,-21.825c-1.875,1.425 -3.45,2.775 -4.8,4.575c1.275,9.675 13.5,21.975 11.925,30.525c-4.125,1.95 -8.55,3.225 -13.275,2.55c-4.65,-0.675 -6.525,-3.225 -7.65,-8.175c-2.475,-11.025 2.4,-24.6 -6.9,-32.475l0.075,0Zm88.875,16.575l0,-47.85l50.85,8.175l0,50.55l-50.85,-10.875Zm-0.075,-104.7l50.925,5.325l0,50.1l-50.925,-7.425l0,-48Zm50.775,124.125l0,50.1l-50.7,-13.95l0,-47.7l50.7,11.55Zm-240.375,-23.775l0,-21.675l10.275,1.5l12.375,-12.45l0.525,50.7l-12.225,-15.675l-10.95,-2.4Z" style="fill:#a5b6d9;fill-rule:nonzero;"/><path d="M66.825,686.625c1.05,-0.45 1.725,-0.375 2.55,-0.15c2.1,4.875 2.925,10.05 2.7,15.375c-0.075,2.025 -0.825,3.825 -1.275,5.7c-0.375,1.425 -1.35,2.25 -2.55,2.925c-0.975,-0.975 -0.675,-1.875 -0.45,-2.85c0.6,-2.775 1.2,-5.475 1.275,-8.325c0.15,-4.35 -1.2,-8.4 -2.175,-12.675l-0.075,0Zm5.25,31.8c-0.225,-2.475 0.675,-4.65 1.2,-6.825c0.75,-3.3 1.875,-6.6 2.325,-9.9c0.6,-4.2 -0.75,-8.25 -1.8,-12.3c-0.525,-1.875 -1.125,-3.75 -1.65,-5.625c-0.3,-1.2 -0.525,-2.325 0.15,-3.375c0.975,-0.075 1.35,0.45 1.575,0.975c1.575,3.225 2.7,6.45 3.375,9.975c0.75,4.125 0.375,8.175 0.675,12.225c0.225,2.625 -0.6,5.175 -0.975,7.65c-0.45,2.85 -1.95,5.55 -4.95,7.2l0.075,0Zm5.7,7.8c-1.425,-2.775 -1.05,-4.875 -0.075,-7.35c2.325,-6.075 4.425,-12.3 3.975,-18.9c-0.375,-5.775 -1.35,-11.4 -3.45,-16.8c-0.9,-2.25 -1.725,-4.575 -2.475,-6.75c0.6,-0.9 1.275,-1.5 2.55,-1.2c1.35,3.075 2.925,6.225 3.825,9.6c3.75,14.25 3.75,28.05 -4.275,41.475l-0.075,-0.075Z" style="fill:#a5b6d9;fill-rule:nonzero;"/><path d="M449.025,786.15l-52.725,6.3l-0.15,-284.1l52.875,-2.85l0,280.65Zm67.35,-385.5c-8.25,37.725 -49.35,34.2 -58.725,2.1l-69.3,2.325l-0.15,-50.925l67.05,-2.475c17.1,-40.5 48.375,-34.65 61.35,0.15l49.65,0.3l1.2,46.35l-51.075,2.175Zm-129.3,-177.825l0,-18l181.275,5.625l0.075,14.55l-181.35,-2.175Z" style="fill:#a5b6d9;fill-rule:nonzero;"/><path d="M39.225,621.45l46.95,7.275l-14.4,-32.55l-6.15,11.25l-10.05,-21.975l-16.35,36.075l0,-0.075Zm48.075,-29.625c0,3.3 -2.625,5.925 -5.925,5.925c-3.3,0 -5.925,-2.625 -5.925,-5.925c0,-3.3 2.625,-5.925 5.925,-5.925c3.3,0 5.925,2.625 5.925,5.925Z" style="fill:#a5b6d9;fill-rule:nonzero;"/><ellipse cx="487.05" cy="377.175" rx="23.25" ry="38.85" style="fill:#365798;"/><path d="M793.53,756.083l-99.28,0l0,-631.779l146.212,0c99.28,0 148.017,55.155 148.017,156.24l0,81.83c0,101.084 -48.737,156.24 -148.017,156.24l-46.932,0l0,237.468Zm46.932,-541.524l-46.932,0l0,213.801l46.932,0c31.689,0 48.737,-14.44 48.737,-59.567l0,-94.666c0,-45.127 -17.047,-59.568 -48.737,-59.568Z" style="fill:#203150;"/><path d="M1308.5,518.622l0,82.161c0,98.829 -49.415,155.303 -144.714,155.303c-95.3,0 -144.714,-56.474 -144.714,-155.303l0,-321.194c0,-98.829 49.414,-155.303 144.714,-155.303c95.299,0 144.714,56.474 144.714,155.303l0,60.004l-91.77,0l0,-66.083c0,-44.12 -19.413,-60.787 -50.199,-60.787c-30.786,0 -50.199,16.863 -50.199,60.983l0,333.548c0,44.12 19.413,60.004 50.395,60.004c30.982,0 50.199,-15.884 50.199,-60.004l0,-88.24l91.769,0l-0.195,-0.392Z" style="fill:#203150;"/><path d="M1492.23,405.12l135.801,0l0,195.765c0,98.765 -49.382,155.201 -144.619,155.201c-95.238,0 -144.62,-56.437 -144.62,-155.201l0,-321.377c0,-98.764 49.382,-155.201 144.62,-155.201c95.237,0 144.619,56.437 144.619,155.201l0,59.964l-91.71,0l0,-66.039c0,-44.091 -19.4,-60.747 -50.166,-60.747c-30.766,0 -50.166,16.852 -50.166,60.944l0,333.329c0,44.092 19.4,59.965 50.166,59.965c30.962,0 50.362,-15.873 50.362,-59.965l0,-113.853l-44.091,0l0,-88.183l-0.196,0.197Z" style="fill:#203150;"/><path d="M1907.53,756.083l-76.005,0l-12.895,-86.625l-92.087,0l-12.895,86.625l-68.875,0l76.46,-477.88l109.836,0l76.461,477.88Zm-171.429,-151.557l72.213,0l-36.107,-241.67l-36.106,241.67Z" style="fill:#203150;"/><path d="M2101.06,617.45l51.212,-338.788l104.394,0l0,477.273l-70.909,0l0,-342.273l-51.818,342.273l-70.91,0l-55.908,-337.424l0,337.575l-65.455,0l0,-477.879l104.394,0l55.151,338.94l-0.152,0.303Z" style="fill:#203150;"/><rect x="2311.52" y="278.207" width="75.095" height="477.879" style="fill:#203150;"/><path d="M2508.08,410.37l0,345.716l-67.446,0l0,-477.879l94.12,0l77.146,285.848l0,-285.696l66.84,0l0,477.424l-77.146,-0.001l-93.363,-345.867l-0.151,0.455Z" style="fill:#203150;"/><path d="M2842.58,490.779l102.657,0l-0.001,147.986c0.001,74.658 -37.329,117.321 -109.322,117.321c-71.993,0 -109.323,-42.663 -109.323,-117.322l0,-243.235c0,-74.659 37.33,-117.322 109.323,-117.322c71.993,0 109.323,42.663 109.323,117.322l0,45.328l-69.327,0l0,-49.92c0,-33.33 -14.665,-45.921 -37.923,-45.921c-23.256,0 -37.922,12.739 -37.922,46.069l0,251.975c0,33.331 14.666,45.329 37.922,45.329c23.406,0 38.071,-11.999 38.071,-45.329l0,-86.066l-33.33,0l0,-66.66l-0.148,0.445Z" style="fill:#203150;"/><path d="M3347.45,125.118l99.861,0l-98.646,630.968l-90.746,0l-54.285,-347.792l-50.64,346.982l-90.948,0l-105.736,-630.969l99.658,0l49.83,337.867l45.778,-337.867l99.659,0l49.829,337.665l46.183,-337.665l0.203,0.811Z" style="fill:#203150;"/><rect x="3465.23" y="278.207" width="75.095" height="477.879" style="fill:#203150;"/><path d="M3693.22,565.451l-23.203,43.677l0,146.806l-75.071,0l0,-477.727l75.071,0l0,208.229l98.275,-208.077l75.072,0l-104.494,212.93l104.494,264.797l-77.195,0l-72.949,-190.333l0,-0.303Z" style="fill:#203150;"/><rect x="3877.58" y="278.207" width="75.095" height="477.879" style="fill:#203150;"/><path d="M133.275,471.15c-1.35,2.25 -1.2,5.025 0.3,6.975l-19.725,30l4.95,-0.075l18.75,-27.525c2.4,0.45 4.95,-0.675 6.375,-2.85c1.8,-2.925 0.9,-6.75 -2.025,-8.55c-2.925,-1.8 -6.75,-0.9 -8.625,2.025Zm-83.1,22.275l-7.275,9.675l3.45,3.225l5.925,-8.25l5.325,0.225c0.3,0.525 0.675,1.05 1.125,1.5c2.475,2.475 6.45,2.475 8.85,0c2.475,-2.475 2.475,-6.45 0,-8.85c-2.475,-2.475 -6.45,-2.475 -8.85,0c-0.75,0.75 -1.275,1.725 -1.575,2.7l-6.975,-0.225Zm15.075,-51.525c-3.3,0 -6,2.7 -6,6c0,3.3 2.7,6 6,6c2.775,0 5.1,-1.875 5.775,-4.5l33.375,0.975l13.05,16.125c-0.15,0.6 -0.3,1.2 -0.3,1.8c0,3.45 2.85,6.3 6.3,6.3c3.45,0 6.3,-2.85 6.3,-6.3c0,-3.45 -2.85,-6.3 -6.3,-6.3c-1.125,0 -2.175,0.3 -3.075,0.825l-14.175,-17.175l-36,-0.975c-1.05,-1.65 -2.925,-2.775 -5.1,-2.775l0.15,0Zm10.125,20.25c-3.45,0.075 -6.225,3 -6.075,6.45c0.075,3.45 3,6.225 6.45,6.075c2.475,-0.075 4.5,-1.575 5.475,-3.675l16.65,-0.375c1.05,2.175 3.3,3.6 5.85,3.525c3.45,-0.075 6.225,-3 6.075,-6.45c-0.075,-3.45 -3,-6.225 -6.45,-6.075c-2.7,0.075 -4.95,1.875 -5.775,4.275l-16.125,0.375c-0.9,-2.475 -3.3,-4.275 -6.075,-4.2l0,0.075Zm-19.5,12.525c0,3.3 -2.7,6 -6,6c-3.3,0 -6,-2.7 -6,-6c0,-3.3 2.7,-6 6,-6c3.3,0 6,2.7 6,6Zm9.825,-116.475c-2.625,0.15 -4.8,1.875 -5.625,4.2l-16.95,0.75l0.225,4.65l16.95,-0.75c1.05,2.25 3.3,3.75 5.925,3.675c3.45,-0.15 6.075,-3.075 5.925,-6.525c-0.15,-3.45 -3.075,-6.15 -6.525,-6l0.075,0Zm42.225,15c-3.45,0.075 -6.225,3 -6.075,6.45c0.075,3.45 3,6.225 6.45,6.075c2.475,-0.075 4.5,-1.575 5.475,-3.675l18.975,-0.525c1.05,2.175 3.3,3.6 5.85,3.525c3.45,-0.075 6.225,-3 6.075,-6.45c-0.075,-3.45 -3,-6.225 -6.45,-6.075c-2.7,0.075 -4.95,1.875 -5.775,4.275l-18.45,0.525c-0.9,-2.475 -3.3,-4.275 -6.075,-4.2l0,0.075Zm-33.3,-22.8l-3.075,3.525l14.85,12.825l60.675,-2.25l-0.375,-4.65l-58.725,2.1l-13.35,-11.55Zm-31.2,38.775l-0.15,-4.5l51.15,-3l53.55,77.925l-3.975,2.475l-52.575,-75.825l-48,2.925Zm99.45,19.05c1.725,-1.95 1.95,-4.725 0.825,-6.975l4.95,-7.125l0.3,-6.75l-8.775,10.8c-2.325,-0.825 -5.025,-0.15 -6.75,1.8c-2.25,2.625 -2.025,6.525 0.6,8.775c2.625,2.25 6.525,2.025 8.85,-0.6l0,0.075Zm-24.225,0.3c1.5,2.175 4.125,3.075 6.525,2.475l23.025,33.225l-0.075,-7.35l-19.125,-28.5c1.35,-2.1 1.35,-4.8 -0.15,-6.975c-1.95,-2.85 -5.85,-3.525 -8.7,-1.5c-2.85,1.95 -3.525,5.85 -1.575,8.7l0.075,-0.075Zm-26.1,-7.2c-2.625,0.15 -4.8,1.875 -5.625,4.2l-42.9,2.175l0.225,4.65l42.9,-2.175c1.05,2.25 3.3,3.75 5.925,3.675c3.45,-0.15 6.075,-3.075 5.925,-6.525c-0.15,-3.45 -3.075,-6.15 -6.525,-6l0.075,0Zm13.125,24.75l-60.975,1.5l0.15,4.725l59.025,-1.5l13.125,16.725c-0.15,0.6 -0.3,1.2 -0.3,1.8c0,3.45 2.85,6.3 6.3,6.3c3.45,0 6.3,-2.85 6.3,-6.3c0,-3.45 -2.85,-6.3 -6.3,-6.3c-1.125,0 -2.175,0.3 -3.075,0.825l-14.25,-17.775Zm28.725,79.125c0.9,1.95 3.75,0.15 4.275,2.7c-0.75,3.075 -6.675,0.375 -8.7,0.675c-1.05,-3.225 6.3,-11.475 8.175,-14.1c2.1,-1.05 7.05,0 9.45,0c0.225,2.1 0.375,3.975 -1.125,5.85c-2.55,0.075 -5.025,-1.05 -7.575,-1.275c-1.5,2.025 -3,4.125 -4.5,6.15Zm-83.925,-50.7l-6.075,0l0,-5.025c4.65,0 7.275,-1.2 9.9,2.925c4.95,7.725 9.6,15.675 14.325,23.55c2.325,3.9 4.725,7.8 7.125,11.625c3.45,5.55 4.35,6 10.95,6.45c4.725,0.3 9.525,0.3 14.325,0.3c4.95,0 4.8,-4.125 9.525,-3.675c4.05,3.825 4.05,8.775 0,12.6c-4.5,0.3 -3.975,-4.35 -7.35,-4.35l-14.4,0c-7.125,0 -9.3,1.575 -12.975,-4.2c-8.4,-13.425 -16.8,-26.775 -25.2,-40.2l-0.15,0Z" style="fill:#a5b6d9;fill-rule:nonzero;"/><path d="M223.199,175.179c0,2.243 -1.159,4.136 -2.632,4.136c-1.427,0 -2.631,-1.823 -2.631,-4.136c0,-2.243 1.159,-4.136 2.631,-4.136c1.428,0 2.632,1.822 2.632,4.136Zm6.424,-9.604c0,2.244 -1.16,4.137 -2.632,4.137c-1.427,0 -2.632,-1.824 -2.632,-4.137c0,-2.243 1.16,-4.135 2.632,-4.135c1.427,0 2.632,1.822 2.632,4.135Zm10.26,0c0,2.244 -1.16,4.137 -2.632,4.137c-1.427,0 -2.632,-1.824 -2.632,-4.137c0,-2.243 1.16,-4.135 2.632,-4.135c1.427,0 2.632,1.822 2.632,4.135Zm-5.755,32.667c0,2.243 -1.159,4.136 -2.632,4.136c-1.427,0 -2.631,-1.823 -2.631,-4.136c0,-2.244 1.159,-4.136 2.631,-4.136c1.428,0 2.632,1.823 2.632,4.136Zm6.558,-8.061c0,2.243 -1.16,4.135 -2.632,4.135c-1.428,0 -2.632,-1.822 -2.632,-4.135c0,-2.244 1.16,-4.137 2.632,-4.137c1.428,0 2.632,1.823 2.632,4.137Zm3.301,-12.829c0,2.243 -1.16,4.136 -2.632,4.136c-1.427,0 -2.632,-1.822 -2.632,-4.136c0,-2.243 1.16,-4.136 2.632,-4.136c1.427,0 2.632,1.823 2.632,4.136Z" style="fill:#365798;fill-rule:nonzero;"/></svg>