<?xml version="1.0" encoding="utf-8"?><svg xmlns="http://www.w3.org/2000/svg" viewBox="0 0 300 300"><path d="m52 52.2 106.3-39.6 89.7 13.6 0 242.6 0 6.8-88.9 11.8L52 251.7 52 52.2Z" fill="#365798"/><path d="M58 246.3 57.7 58 149.8 24 149.6 275.3 58 246.3Zm107.2 29.2 0-250.2 73.4 9.9 0 231.2-73.4 9.1z" fill="#a5b6d9"/><path d="m103 187.5-41.2-2.4-0.3-72.6 41.6-3.9-0.1 78.9zm4-79.3 37-4.6-0.3 85.2-36.8-1.1 0.1-79.5zm-45.7-0.6 0-46.1 41.7-13.6 0.3 55-42 4.7zm83.1-75.1 0.2 65-37.6 4.8 0-56.4 37.4-13.4zM84.5 248l0-55.7 33.6 2.2 0 63.5-33.6-10zm58.5 19.1-4.1-1.5c0.9-5.3-4.5-7.6-4.5-1.4l-4.4-1.3c-0.2-5.2-3.3-7.5-5-1.6l-2.3-0.7-0.1-65.8 2.9 0.2c-1 6.5 5.6 6.7 4.8 0.4l4.8 0.3c-1 6.8 5.5 6.8 4.8 0.3l3 0.2 0.1 70.9zm-80.9-76.3 19.5 1.4-0.1 25.6-19.4-2.7 0-24.3zm19.7 30.6-0.2 26.2-19.6-4.8 0-24.3 19.8 2.9zm87.3-192 66 8.7 0 225.1-65.9 8.3-0.1-242.1z" fill="#365798"/><path d="M72.9 100.1 78.7 78.3 74.9 80 80 61.3l6-1.7-4.5 12.6 4.5-2.4-13.1 30.3 0 0z" fill="#a5b6d9"/><path d="m118 88.2c0.3-0.8 0.6-1.5 0.9-2.3 3.3 1.4 6.3 2.4 9.6 0.5 3.2-1.9 5.4-5.8 6.6-9.2 2.4-6.7 2.4-15.8-2-21.7-5.3-7.2-12.9-3.4-16.5 3.3-1.1 2.1-2.7 7.4-2.9 10.7-0.1 1.6 0 3.3 0.2 5 0.2 1.9 1.2 3.9 1 5.9-0.1 0.6-0.4 1-1.1 1.1-4-6.6-1.8-17.3 1.2-23.8 3-6.5 11.3-13.1 18-6.9 6.1 5.7 6.7 16.1 5 23.8-1.5 6.8-6.2 16.9-14.7 16.2-1.4-0.4-4.4-1.1-5.3-2.6l0 0zm4.9-10.9c-0.8-2.7 2.7-4.6 3.5-6.7 0.5-1.2 0-2.3-0.5-3.3-1.2-0.6-2.1-0.3-2.6 0.9-0.8 2.1-1.5 3.5-3 5.2-0.8-3.2-0.3-6.9 1.6-9.7 1-1.5 3.1-2.2 4.6-1.6 4.9 1.8 3.4 10.1 1.3 13.4-1.2 1.7-3.1 1.8-4.9 1.8zm0.8-6.1c-1.9 5.3-4.7 11.2-6.7 15.7-0.2-0.1-0.3-0.1-0.4-0.2-0.8-0.9-1.3-2-1.8-3.1-0.2-0.4 0-0.9 0.3-1.2 3.1-3.4 5.4-8.3 8.6-11.2l0 0z" fill="#a5b6d8"/><path d="m96.7 231.2c-1.4 2.8-1 5.9-1.4 9-2.3-0.6-4-5.1-4.4-7.1 0.4-2.3 1.6-4.1 3.1-5.9 0.7-0.9 0.9-1.7 0.5-2.7-0.2-0.4-0.1-0.9-0.5-1.2-2.1 0.4-3.3 1.9-4.7 3.3-1.6-1.7-1.2-7.9 0-9.7 2-0.4 3.7 0.2 5.4 1.4 1.3-1.2 1.3-2.4 0.2-3.7-0.9-1-3.5-2.1-4-3.1-0.4-1.5 2.4-6.5 4.1-6.4 1.8 2.7 2.9 5.8 3.6 9 0.6 0.3 1.2 0.5 1.9 0.4 0.4-3.7-0.5-7.2-1.6-10.6 0.1-0.1 0.2-0.2 0.2-0.2 2 0.1 4 0.5 5.5 2 3.5 3.4-2.7 9.9 0.1 13.8 2.5-2.4 2.5-5.5 4.4-8.1 1.9 2.4 3.6 7.3 3.2 10.4-1.6 2-2.9 3.1-6.8 3.4 0.1 0.9-0.4 1.7-0.2 2.7 2.1 2.2 4.4 1.9 7.1 1.7 0.4 1.9-1.6 8-3.1 9.4-3-1.4-4.5-4.2-6.2-6.9-0.6 0.5-1.1 0.9-1.5 1.4 0.4 3.1 4.3 6.9 3.8 9.6-1.3 0.6-2.7 1-4.2 0.8-1.5-0.2-2.1-1-2.4-2.6-0.7-3.3 0.8-7.6-2.1-10.1l0 0zm28.1 5.2 0-15.1 16.1 2.6 0 16-16.1-3.5zm-0.1-33 16.1 1.7 0 15.8-16.1-2.3 0-15.2zm16.1 39.2 0 15.8-16-4.4 0-15.1 16 3.7zm-76-7.5 0-6.8 3.2 0.5 3.9-3.9 0.2 16-3.9-5-3.4-0.8zM74.3 229.1c0.3-0.1 2.5-2 2.8-1.9 1.5 4.1 1.3 7.4-0.5 11.7l-2.1-2.9c0.7-3.1 0.7-3.9-0.3-6.9zM76.6 242c-51.1 38.7-25.5 19.3 0 0zM193.8 260.9l-16.7 2 0-89.7 16.7-0.9 0 88.6zm21.3-121.7c-2.6 11.9-15.6 10.8-18.5 0.7l-21.9 0.7 0-16.1 21.2-0.8c5.4-12.8 15.3-10.9 19.4 0l15.7 0.1 0.4 14.6-16.3 0.8zM174.2 83l0-5.7 57.3 1.8 0 4.6-57.3-0.7zM64.4 208.9l14.8 2.3-4.5-10.3-1.9 3.6-3.2-6.9-5.2 11.3z" fill="#a5b6d9"/><ellipse cx="205.8" cy="131.7" rx="7.3" ry="12.3" fill="#365798"/><path d="m94.1 161.4c-0.4 0.7-0.4 1.6 0.1 2.2l-6.2 9.5 1.6 0 5.9-8.7c0.8 0.1 1.6-0.2 2-0.9 0.6-0.9 0.3-2.1-0.6-2.7-1-0.6-2.2-0.3-2.8 0.6zm-26.3 7.1-2.3 3.1 1.1 1 1.9-2.6 1.7 0.1c0.1 0.2 0.2 0.3 0.4 0.5 0.8 0.8 2 0.8 2.8 0 0.8-0.8 0.8-2 0-2.8-0.8-0.8-2-0.8-2.8 0-0.2 0.2-0.4 0.5-0.5 0.9l-2.3-0.2zm4.8-16.3c-1 0-1.9 0.9-1.9 1.9 0 1 0.9 1.9 1.9 1.9 0.9 0 1.6-0.6 1.8-1.4l10.5 0.3 4.1 5.1c0 0.2-0.1 0.4-0.1 0.6 0 1.1 0.9 2 2 2 1.1 0 2-0.9 2-2 0-1.1-0.9-2-2-2-0.4 0-0.7 0.1-1 0.3L85.4 153.5 74 153.2c-0.2-0.7-0.8-1-1.4-1l0 0zm3.2 6.4c-1.1 0-2 0.9-1.9 2 0 1.1 0.9 2 2 1.9 0.8 0 1.4-0.5 1.7-1.2l5.3-0.1c0.3 0.7 1 1.1 1.8 1.1 1.1 0 2-0.9 1.9-2 0-1.1-0.9-2-2-1.9-0.9 0-1.6 0.6-1.8 1.4l-5.1 0.1c-0.3-0.8-1-1.4-1.9-1.3l0 0zm-6.2 3.9c0 1-0.9 1.9-1.9 1.9-1 0-1.9-0.9-1.9-1.9 0-1 0.9-1.9 1.9-1.9 1 0 1.9 0.9 1.9 1.9zm3.1-36.8c-0.8 0-1.5 0.6-1.8 1.3l-5.4 0.2 0.1 1.5 5.4-0.2c0.3 0.7 1 1.2 1.9 1.2 1.1 0 1.9-1 1.9-2.1 0-1.1-1-1.9-2.1-1.9l0 0zm13.4 4.8c-1.1 0-2 0.9-1.9 2 0 1.1 0.9 2 2 1.9 0.8 0 1.4-0.5 1.7-1.2l6-0.2c0.3 0.7 1 1.1 1.8 1.1 1.1 0 2-0.9 1.9-2 0-1.1-0.9-2-2-1.9-0.9 0-1.6 0.6-1.8 1.4l-5.8 0.2c-0.3-0.8-1-1.4-1.9-1.3l0 0zm-10.5-7.2-1 1.1 4.7 4.1 19.2-0.7-0.1-1.5-18.5 0.7-4.3-3.7zm-9.9 12.2 0-1.4 16.2-0.9 16.9 24.6-1.3 0.8-16.6-24-15.2 0.9zm31.4 6c0.5-0.6 0.6-1.5 0.3-2.2l1.6-2.3 0-2-2.8 3.4c-0.7-0.3-1.6 0-2.1 0.6-0.7 0.8-0.6 2.1 0.2 2.8 0.8 0.6 2.1 0.5 2.8-0.3l0 0zm-7.6 0.1c0.5 0.7 1.3 1 2.1 0.8l7.3 10.5 0-2.3-6-9c0.4-0.7 0.4-1.5 0-2.2-0.6-0.9-1.8-1.1-2.7-0.5-1.2 0.6-1.4 1.9-0.7 2.7l0 0zm-8.3-2.2c-0.8 0-1.5 0.6-1.8 1.3l-13.6 0.7 0.1 1.5 13.6-0.7c0.3 0.7 1 1.2 1.9 1.2 1.1 0 1.9-1 1.9-2.1 0-1.1-1-2-2.1-1.9l0 0zm4.2 7.8-19.3 0.5 0 1.5 18.6-0.5 4.1 5.3c0 0.2-0.1 0.4-0.1 0.6 0 1.1 0.9 2 2 2 1.1 0 2-0.9 2-2 0-1.1-0.9-2-2-2-0.4 0-0.7 0.1-1 0.3l-4.3-5.7zm9 25c0.3 0.6 1.2 0 1.4 0.9-0.2 1-2.1 0.1-2.7 0.2-0.3-1 2-3.6 2.6-4.5 0.7-0.3 2.2 0 3 0 0.1 0.7 0.1 1.3-0.4 1.8-0.8 0-1.6-0.3-2.4-0.4-0.5 0.7-1 1.3-1.5 2zm-26.5-16-1.9 0 0-1.6c1.5 0 2.3-0.4 3.1 0.9 1.6 2.4 3 5 4.5 7.4 0.7 1.2 1.5 2.5 2.3 3.7 1.1 1.8 1.4 1.9 3.5 2 1.5 0.1 3 0.1 4.5 0.1 1.6 0 1.5-1.3 3-1.2 1.3 1.2 1.3 2.8 0 4-1.4 0.1-1.3-1.4-2.3-1.4l-4.6 0c-2.3 0-2.9 0.5-4.1-1.3-2.6-4.2-5.3-8.4-8-12.6l0 0z" fill="#a5b6d9"/><rect ry="5.2" y="131.9" x="113.8" height="31.6" width="22.6" fill="#a5b6d9"/></svg>